# xmcd
#
# Track frame offsets:
#	150
#	13001
#	23405
#	36691
#	52665
#	63516
#	74531
#	89088
#	101900
#	116561
#	126683
#	137034
#	149203
#	161168
#	172986
#	185784
#	198421
#	208980
#	222044
#	231570
#
# Disc length: 3211 seconds
#
# Revision: 1
# Processed by: cddbd v1.5.2PL0 Copyright (c) Steve Scherf et al.
# Submitted via: audiograbber 1.83.01
#
DISCID=480c8914
DTITLE=Various Artist - American Roadsongs CD10 - Blue Hawaii
DYEAR=1900
DGENRE=Country
TTITLE0=Jenks Tex Carman - Hillbilly Hula
TTITLE1=Sons Of The Pioneers - Hawaiian Lullaby
TTITLE2=Tommy Durdon - Hula Boogie
TTITLE3=Dinah Shore - Far Away Places
TTITLE4=Lany McIntyre - Hula Chant
TTITLE5=Sons Of The Pioneers - Blue Hawaii
TTITLE6=Hank Snow - On the Old Hawaiian Shore With You
TTITLE7=Hank Penny - Hawaiian Honeymoon
TTITLE8=Gene Autry - Blue Hawaii
TTITLE9=Laurel and Miles - Sweet Hawaii
TTITLE10=Jame Elmore and Brothers - Hawaiian Boogie
TTITLE11=Hank Snow - Bluebird Island
TTITLE12=Lany McIntyre - South Sea Moon
TTITLE13=Bob Wills - Neath Hawaiian Palms
TTITLE14=Cecil Campbell - Hawaiian Skies
TTITLE15=Tune Wranglers - Hawaiian Honeymoon
TTITLE16=Sons Of The Pioneers - Stars Above Hawaii
TTITLE17=Jimmy Newman - Dreamland Island
TTITLE18=Bill Browning - Hula Rock
TTITLE19=Chuck Miller - Hopahula Boogie
EXTD=
EXTT0=
EXTT1=
EXTT2=
EXTT3=
EXTT4=
EXTT5=
EXTT6=
EXTT7=
EXTT8=
EXTT9=
EXTT10=
EXTT11=
EXTT12=
EXTT13=
EXTT14=
EXTT15=
EXTT16=
EXTT17=
EXTT18=
EXTT19=
PLAYORDER=
